<?xml version="1.0" encoding="utf-8"?>
<!-- Generator: Adobe Illustrator 25.2.1, SVG Export Plug-In . SVG Version: 6.00 Build 0)  -->
<svg version="1.1" xmlns="http://www.w3.org/2000/svg" xmlns:xlink="http://www.w3.org/1999/xlink" x="0px" y="0px"
	 viewBox="0 0 3710 3710" style="enable-background:new 0 0 3710 3710;" xml:space="preserve">
<style type="text/css">
	.st0{opacity:0.3;fill:url(#SVGID_1_);}
	.st1{fill:url(#SVGID_2_);}
	.st2{fill:url(#SVGID_3_);}
	.st3{fill:#FFFFFF;}
	.st4{opacity:0.34;fill:#FFFFFF;}
	.st5{fill:url(#SVGID_4_);}
	.st6{fill:url(#SVGID_5_);}
	.st7{fill:url(#SVGID_6_);}
	.st8{fill:url(#SVGID_7_);}
	.st9{fill:url(#SVGID_8_);}
	.st10{fill:url(#SVGID_9_);}
	.st11{fill:url(#SVGID_10_);}
	.st12{fill:url(#SVGID_11_);}
	.st13{fill:url(#SVGID_12_);}
	.st14{fill:url(#SVGID_13_);}
	.st15{fill:url(#SVGID_14_);}
	.st16{fill:url(#SVGID_15_);}
	.st17{fill:url(#SVGID_16_);}
	.st18{fill:url(#SVGID_17_);}
	.st19{fill:url(#SVGID_18_);}
	.st20{fill:url(#SVGID_19_);}
	.st21{fill:url(#SVGID_20_);}
	.st22{fill:url(#SVGID_21_);}
	.st23{fill:url(#SVGID_22_);}
	.st24{fill:url(#SVGID_23_);}
	.st25{fill:url(#SVGID_24_);}
	.st26{fill:url(#SVGID_25_);}
	.st27{fill:url(#SVGID_26_);}
	.st28{fill:url(#SVGID_27_);}
	.st29{fill:url(#SVGID_28_);}
</style>
<g id="Background">
</g>
<g id="Illustration">
	<g>
		<linearGradient id="SVGID_1_" gradientUnits="userSpaceOnUse" x1="3644.9617" y1="4081.4114" x2="1153.4872" y2="987.1564">
			<stop  offset="0" style="stop-color:#B37CFF"/>
			<stop  offset="1" style="stop-color:#F895E7"/>
		</linearGradient>
		<path class="st0" d="M2959.54,2861.15c-57.23,60.25-111.38,99.1-154.16,129.8c-502.89,360.83-1097.95,255.65-1224.41,229.96
			c-186.75-37.93-547.74-111.25-808.72-418.16c-394.85-464.34-333.37-1195.88-27.09-1678.79
			c56.02-88.33,351.95-578.59,953.41-657.21c364-47.58,788.31,48.38,1095.58,305.82
			C3439.13,1312.94,3393.22,2404.59,2959.54,2861.15z"/>
		<g>
			<linearGradient id="SVGID_2_" gradientUnits="userSpaceOnUse" x1="2024.134" y1="1502.6764" x2="783.7257" y2="2770.6494">
				<stop  offset="0" style="stop-color:#FDF53F"/>
				<stop  offset="0.6645" style="stop-color:#E57A58"/>
				<stop  offset="1" style="stop-color:#D93C65"/>
			</linearGradient>
			<path class="st1" d="M1764.01,1758.89l-559.13,0.99c-342.72,0.61-624.6,268.84-624.6,599.11v0
				c0,330.27,281.88,589.75,624.6,579.72h0c337.33-9.87,606.91-277.92,606.91-598.83l42.13-534.76
				C1853.92,1779.51,1790.41,1758.85,1764.01,1758.89z"/>
			<g>
				<g>
					<linearGradient id="SVGID_3_" gradientUnits="userSpaceOnUse" x1="1746.2334" y1="1778.0311" x2="464.5408" y2="3142.4131">
						<stop  offset="0" style="stop-color:#FDF53F"/>
						<stop  offset="0.6645" style="stop-color:#E57A58"/>
						<stop  offset="1" style="stop-color:#D93C65"/>
					</linearGradient>
					<path class="st2" d="M1232.56,2923.8L1232.56,2923.8c337.33-9.88,606.91-277.92,606.91-598.83v-534.71
						c0-25.6-21.38-46.31-47.78-46.27l-559.13,0.99c-342.72,0.61-624.6,268.84-624.6,599.11v0
						C607.96,2674.35,889.84,2933.83,1232.56,2923.8z"/>
					<path class="st3" d="M845.73,2665.9c-83.51-88.24-129.49-203.15-129.49-323.58c0-272.69,231.61-495.52,516.3-496.72
						c0.77,0,1.55-0.01,2.32-0.01c157.48,0,302.47,68.09,398.11,187.05l-8.06,6.48c-93.65-116.49-235.73-183.19-390.05-183.19
						c-0.77,0-1.51,0-2.28,0.01c-279.02,1.18-506.01,219.37-506.01,486.39c0,117.77,44.98,230.17,126.66,316.48L845.73,2665.9z"/>
					<path class="st4" d="M751.92,2341.85c0,254.15,216.52,454.52,480.64,447.61c260.91-6.82,470.1-213.8,470.1-462.37
						s-209.19-449.06-470.1-447.78C968.44,1880.61,751.92,2087.7,751.92,2341.85z"/>
				</g>
				<g>
					<path class="st3" d="M1235.34,2391.23v-73.54l192.46-3v192.44c-18.06,21.79-43.62,38.96-76.7,51.49
						c-33.14,12.55-69.92,19.28-110.36,20.16c-42.55,0.93-79.94-7.42-112.14-25.07c-32.25-17.68-57.18-43.83-74.75-78.46
						c-17.6-34.65-26.63-75.62-27.08-122.88v-33.11c0-48.6,8.35-90.79,25.04-126.56c16.67-35.73,40.69-63.17,72.05-82.31
						c31.3-19.11,67.91-28.86,109.8-29.28c58.18-0.58,103.57,12.64,136.23,39.62c32.61,26.94,51.9,66.41,57.92,118.44l-97.86,1.35
						c-4.48-27.61-14.4-47.74-29.75-60.39c-15.37-12.66-36.53-18.84-63.51-18.52c-34.45,0.41-60.71,13.49-78.77,39.27
						c-18.07,25.8-27.23,63.95-27.45,114.44v31.02c0,50.93,9.83,89.22,29.48,114.86c19.63,25.62,48.37,38.04,86.18,37.29
						c37.96-0.76,64.99-9.27,81.12-25.52v-83.34L1235.34,2391.23z"/>
				</g>
			</g>
		</g>
		<g>
			
				<linearGradient id="SVGID_4_" gradientUnits="userSpaceOnUse" x1="1705.291" y1="1353.1564" x2="2012.4974" y2="2046.8088" gradientTransform="matrix(-1 0 0 1 2955.5369 0)">
				<stop  offset="0" style="stop-color:#FEBBBA"/>
				<stop  offset="1" style="stop-color:#FF928E"/>
			</linearGradient>
			<path class="st5" d="M1231.08,1478.25l1-33.28l-34.78-69.06c-6.36-12.63-6.41-27.52-0.13-40.2l39.4-79.55
				c0,0,22.75,172.67,28.74,187.02c5.99,14.35-16.24,40.14-16.24,40.14L1231.08,1478.25z"/>
			
				<linearGradient id="SVGID_5_" gradientUnits="userSpaceOnUse" x1="1710.7491" y1="1350.7391" x2="2017.9554" y2="2044.3915" gradientTransform="matrix(-1 0 0 1 2955.5369 0)">
				<stop  offset="0" style="stop-color:#FEBBBA"/>
				<stop  offset="1" style="stop-color:#FF928E"/>
			</linearGradient>
			<path class="st6" d="M1232.08,1444.97c0,0-105.79,288.39-286.05,378.52c0,0,60,97.89,91.31,103.83
				c0,0,192.56-246.46,212.19-448.37L1232.08,1444.97z"/>
		</g>
		<g>
			<linearGradient id="SVGID_6_" gradientUnits="userSpaceOnUse" x1="3000.9519" y1="1521.4717" x2="2096.5281" y2="2570.6035">
				<stop  offset="0" style="stop-color:#CE1567"/>
				<stop  offset="1" style="stop-color:#7A1DBC"/>
			</linearGradient>
			<path class="st7" d="M2457.99,1757.66l-540.82,0.96c-26.24,0.05-47.54,20.81-47.54,46.37v533.98
				c0,320.47,265.46,572.5,588.36,563.05h0c317.96-9.31,572.18-269.4,572.18-581.06v0
				C3030.17,2009.3,2775.96,1757.1,2457.99,1757.66z"/>
			<g>
				<linearGradient id="SVGID_7_" gradientUnits="userSpaceOnUse" x1="1844.3413" y1="1374.6277" x2="2637.4844" y2="2552.9177">
					<stop  offset="0" style="stop-color:#CE1567"/>
					<stop  offset="1" style="stop-color:#7A1DBC"/>
				</linearGradient>
				<path class="st8" d="M2485.68,2887.11L2485.68,2887.11c-322.9,9.45-588.36-242.57-588.36-563.05v-533.98
					c0-25.56,21.3-46.33,47.54-46.37l540.82-0.96c317.96-0.56,572.18,251.64,572.18,563.3v0
					C3057.86,2617.71,2803.64,2877.8,2485.68,2887.11z"/>
				<path class="st3" d="M2596.11,2774.05l-2.59-10.01c100.44-26.05,191.36-85.31,256.03-166.86
					c66.47-83.83,101.61-183.96,101.61-289.55c0-121.7-47.54-236.06-133.85-322.02c-87.96-87.58-205.61-135.52-331.6-134.99
					c-126.75,0.54-246.21,49.92-336.37,139.05l-7.27-7.35c92.1-91.04,214.12-141.48,343.6-142.03c0.71,0,1.42-0.01,2.12-0.01
					c127.85,0,247.39,48.96,336.81,138.01c88.28,87.9,136.89,204.87,136.89,329.34c0,107.95-35.91,210.3-103.85,295.97
					C2791.59,2686.9,2698.71,2747.43,2596.11,2774.05z"/>
				<path class="st4" d="M2928.84,2308.05c0,241.38-197.24,442.22-443.16,448.65c-248.86,6.51-452.8-188.1-452.8-434.74
					s203.94-447.58,452.8-448.8C2731.6,1871.96,2928.84,2066.67,2928.84,2308.05z"/>
				<g>
					<path class="st3" d="M2702.76,2300.07c0,48.87-8.98,91.87-26.94,129.04c-17.98,37.2-43.73,66.17-77.28,86.89
						c-33.61,20.77-72.2,31.63-115.82,32.57c-43.23,0.93-81.88-8.2-115.91-27.4c-34.09-19.24-60.54-47.2-79.31-83.9
						c-18.79-36.72-28.31-79.21-28.55-127.44v-24.8c0-49.37,9.34-92.96,28.01-130.73c18.65-37.74,44.97-66.81,78.95-87.22
						c33.92-20.37,72.62-30.76,116.09-31.18c43.38-0.41,81.86,9.2,115.47,28.8c33.55,19.58,59.48,47.86,77.82,84.83
						c18.31,36.95,27.47,79.73,27.47,128.36V2300.07z M2594.8,2279.22c0-52.18-9.74-91.7-29.21-118.58
						c-19.5-26.9-47.35-40.16-83.59-39.74c-36.06,0.42-63.92,14.18-83.55,41.31c-19.65,27.16-29.6,66.74-29.84,118.74v24.4
						c0,51.08,9.83,90.54,29.48,118.34c19.63,27.78,47.85,41.3,84.63,40.58c35.99-0.7,63.61-14.76,82.87-42.15
						c19.24-27.37,28.98-66.9,29.21-118.63V2279.22z"/>
				</g>
			</g>
		</g>
		<g>
			<linearGradient id="SVGID_8_" gradientUnits="userSpaceOnUse" x1="2643.5676" y1="419.1562" x2="2261.1077" y2="1804.2786">
				<stop  offset="0" style="stop-color:#FDF53F"/>
				<stop  offset="0.6645" style="stop-color:#E57A58"/>
				<stop  offset="1" style="stop-color:#D93C65"/>
			</linearGradient>
			<path class="st9" d="M2458.03,548.64L2458.03,548.64c-322.9-8.81-588.36,243.74-588.36,564.22v533.98
				c0,25.56,38.17,65,96.24,64.85l492.12-18.68c317.96-0.07,572.18-252.77,572.18-564.43v0
				C3030.21,816.91,2775.99,557.32,2458.03,548.64z"/>
			<g>
				<g>
					<linearGradient id="SVGID_9_" gradientUnits="userSpaceOnUse" x1="1942.3983" y1="1714.1519" x2="3487.6658" y2="-43.007">
						<stop  offset="0" style="stop-color:#FDF53F"/>
						<stop  offset="0.6645" style="stop-color:#E57A58"/>
						<stop  offset="1" style="stop-color:#D93C65"/>
					</linearGradient>
					<path class="st10" d="M2485.71,533.73L2485.71,533.73c-322.9-8.81-588.36,243.74-588.36,564.22v533.98
						c0,25.56,21.3,46.28,47.54,46.28l540.82-0.12c317.96-0.07,572.18-252.78,572.18-564.43v0
						C3057.89,801.99,2803.68,542.41,2485.71,533.73z"/>
					<path class="st3" d="M2109.27,1403.44c-71.1-85.66-110.26-193.64-110.26-304.04c0-126.66,49.84-245.04,140.35-333.33
						c92.45-90.18,215.55-138.09,346.48-134.8c180.39,4.48,343.01,106.82,424.39,267.08l-9.22,4.68
						c-79.66-156.88-238.84-257.05-415.43-261.43c-128.15-3.18-248.58,43.65-339.01,131.87
						c-88.49,86.32-137.23,202.07-137.23,325.93c0,108,38.31,213.63,107.88,297.44L2109.27,1403.44z"/>
					<path class="st3" d="M2211.58,1496.2c-38.37-26-72.79-57.21-102.3-92.76l7.95-6.6c28.89,34.81,62.59,65.36,100.15,90.81
						L2211.58,1496.2z"/>
					<path class="st4" d="M2928.87,1111.91c0-241.38-197.24-441.83-443.16-447.77c-248.86-6.01-452.8,189-452.8,435.64
						s203.94,447.17,452.8,447.9C2731.63,1548.4,2928.87,1353.29,2928.87,1111.91z"/>
				</g>
				<g>
					<path class="st3" d="M2693.79,1141.63c0,47.45-8.47,88.96-25.4,124.56c-16.95,35.63-41.23,63.05-72.86,82.25
						c-31.68,19.24-68.06,28.72-109.18,28.44c-40.75-0.29-77.17-10.21-109.25-29.79c-32.13-19.61-57.05-47.48-74.74-83.62
						c-17.7-36.16-26.68-77.67-26.9-124.49v-24.08c0-47.93,8.8-89.98,26.39-126.14c17.57-36.12,42.38-63.63,74.4-82.52
						c31.96-18.86,68.44-27.89,109.42-27.11c40.89,0.78,77.16,11.15,108.85,31.1c31.63,19.92,56.08,48.08,73.36,84.49
						c17.27,36.37,25.9,78.17,25.9,125.39V1141.63z M2592.01,1118.43c0-50.66-9.18-89.3-27.54-115.93
						c-18.38-26.65-44.64-40.28-78.79-40.86c-33.99-0.58-60.25,12.03-78.75,37.83c-18.52,25.83-27.9,63.99-28.13,114.46v23.68
						c0,49.59,9.27,88.16,27.79,115.69c18.5,27.51,45.1,41.41,79.77,41.72c33.93,0.31,59.96-12.58,78.12-38.65
						c18.14-26.04,27.31-64.16,27.54-114.39V1118.43z"/>
				</g>
			</g>
		</g>
		<g>
			<linearGradient id="SVGID_10_" gradientUnits="userSpaceOnUse" x1="1828.8907" y1="303.0615" x2="1064.0052" y2="1502.0698">
				<stop  offset="0" style="stop-color:#CE1567"/>
				<stop  offset="1" style="stop-color:#7A1DBC"/>
			</linearGradient>
			<path class="st11" d="M1204.84,1693.28l559.13-0.12c26.4-0.01,47.78-20.76,47.78-46.36v-534.71
				c0-320.91-269.59-588.42-606.91-597.63h0c-342.72-9.35-624.6,250.69-624.6,580.96v0
				C580.24,1425.68,862.12,1693.35,1204.84,1693.28z"/>
			<g>
				<linearGradient id="SVGID_11_" gradientUnits="userSpaceOnUse" x1="2252.397" y1="1868.0375" x2="832.8142" y2="793.0126">
					<stop  offset="0" style="stop-color:#CE1567"/>
					<stop  offset="1" style="stop-color:#7A1DBC"/>
				</linearGradient>
				<path class="st12" d="M1232.52,499.54L1232.52,499.54c337.33,9.2,606.91,276.71,606.91,597.63v534.71
					c0,25.6-21.38,46.36-47.78,46.36l-559.13,0.12c-342.72,0.07-624.6-267.6-624.6-597.86v0
					C607.92,750.23,889.8,490.19,1232.52,499.54z"/>
				<path class="st3" d="M936.42,1487.28c-137.89-93.17-220.22-244.66-220.22-405.25c0-127.74,50.98-247.82,143.55-338.12
					c98.63-96.22,231.06-147.28,372.9-143.75c54.86,1.36,108.74,11,160.14,28.66l-3.36,9.77c-50.4-17.31-103.24-26.76-157.04-28.1
					c-139.04-3.45-268.81,46.56-365.43,140.81c-90.56,88.34-140.43,205.79-140.43,330.72c0,157.15,80.62,305.44,215.67,396.69
					L936.42,1487.28z"/>
				<path class="st3" d="M1071.38,1552.64c-47.99-15.28-93.4-37.27-134.96-65.35l5.79-8.56c40.75,27.53,85.26,49.08,132.31,64.07
					L1071.38,1552.64z"/>
				<path class="st3" d="M1233.75,1577.74c-0.41,0-0.82,0-1.23,0c-55-0.12-109.21-8.57-161.13-25.1l3.14-9.85
					c50.91,16.21,104.08,24.49,158.02,24.62c0.4,0,0.81,0,1.21,0c104.64,0,204.35-30.65,288.47-88.67l5.87,8.51
					C1442.24,1546.46,1340.48,1577.74,1233.75,1577.74z"/>
				<path class="st4" d="M751.88,1082.45c0-254.15,216.52-454.95,480.65-448.57c260.91,6.3,470.1,212.86,470.1,461.44
					s-209.19,449.47-470.1,448.71C968.4,1543.25,751.88,1336.6,751.88,1082.45z"/>
				<g>
					<path class="st3" d="M1198.08,1278.66l227.19,2.07v82.23l-335.03-2.4V859.88l107.84,2.03V1278.66z"/>
				</g>
			</g>
		</g>
		<g>
			
				<linearGradient id="SVGID_12_" gradientUnits="userSpaceOnUse" x1="7805.1577" y1="-300.9105" x2="7178.5923" y2="-680.6469" gradientTransform="matrix(-0.993 0.1177 0.2847 0.8832 10004.7764 2610.4812)">
				<stop  offset="0" style="stop-color:#53D8FF"/>
				<stop  offset="1" style="stop-color:#3840F7"/>
			</linearGradient>
			<polygon class="st13" points="2502.16,2914.26 2541.36,3050.35 2616.68,2965.29 			"/>
			
				<linearGradient id="SVGID_13_" gradientUnits="userSpaceOnUse" x1="7457.4058" y1="-441.3119" x2="6740.395" y2="-1199.463" gradientTransform="matrix(-0.993 0.1177 0.2847 0.8832 10004.7764 2610.4812)">
				<stop  offset="0" style="stop-color:#53D8FF"/>
				<stop  offset="1" style="stop-color:#3840F7"/>
			</linearGradient>
			<path class="st14" d="M3091.66,2659.84l-274.67,428.26c-5.26,8.2-13.63,13.91-23.18,15.81c-9.55,1.9-19.47-0.17-27.47-5.73
				l-419.59-291.97c-4.8-3.34-7.1-9.27-5.8-14.97c1.29-5.71,5.92-10.06,11.7-11L3091.66,2659.84z"/>
			
				<linearGradient id="SVGID_14_" gradientUnits="userSpaceOnUse" x1="7759.4155" y1="-307.2378" x2="7174.1123" y2="-661.9671" gradientTransform="matrix(-0.993 0.1177 0.2847 0.8832 10004.7764 2610.4812)">
				<stop  offset="0" style="stop-color:#53D8FF"/>
				<stop  offset="1" style="stop-color:#3840F7"/>
			</linearGradient>
			<polygon class="st15" points="2502.21,2914.26 3091.66,2659.84 2569.77,2961.59 2579.04,2999.79 			"/>
			
				<linearGradient id="SVGID_15_" gradientUnits="userSpaceOnUse" x1="-7681.4102" y1="-234.4821" x2="-7413.9595" y2="-311.9449" gradientTransform="matrix(0.993 -0.1177 0.1177 0.993 10099.665 2381.6868)">
				<stop  offset="0" style="stop-color:#53D8FF"/>
				<stop  offset="1" style="stop-color:#3840F7"/>
			</linearGradient>
			<polygon class="st16" points="2610.05,2989.35 2541.36,3050.35 2569.77,2961.59 			"/>
		</g>
		<g>
			<path class="st3" d="M963.11,1619l-5.41,23.53c-0.41,1.79-2.19,2.91-3.98,2.49c-1.79-0.41-2.91-2.19-2.5-3.98
				c0.01-0.03,0.02-0.07,0.03-0.1l0.01-0.03l6.25-23.28c0.4-1.54,1.98-2.46,3.52-2.06C962.54,1615.96,963.45,1617.5,963.11,1619z"/>
			<path class="st3" d="M943.38,1702l-11.52,46.13c-0.66,2.68-3.37,4.31-6.04,3.64c-2.67-0.66-4.31-3.37-3.64-6.04
				c0.01-0.04,0.03-0.1,0.04-0.14l12.77-45.8c0.64-2.31,3.03-3.66,5.34-3.02C942.6,1697.4,943.95,1699.73,943.38,1702z"/>
			<path class="st3" d="M917.52,1807.46l-10.2,46.29l-0.03,0.15c-0.77,3.49-4.22,5.7-7.71,4.93c-3.49-0.77-5.7-4.22-4.93-7.71
				c0.01-0.05,0.03-0.12,0.04-0.17l11.52-46.27c0.78-3.12,3.94-5.02,7.06-4.24c3.07,0.76,4.95,3.83,4.28,6.89L917.52,1807.46z"/>
			<path class="st3" d="M895.63,1913.52l-7.85,46.72l-0.03,0.16c-0.68,4.05-4.51,6.78-8.56,6.1c-4.05-0.68-6.78-4.51-6.1-8.56
				c0-0.03,0.02-0.09,0.02-0.12l8.68-46.91c0.71-3.82,4.38-6.34,8.2-5.64c3.78,0.7,6.29,4.3,5.66,8.07L895.63,1913.52z"/>
			<path class="st3" d="M879.69,2020.44c-1.67,15.64-3.01,31.32-4.02,47.02c-0.29,4.54-4.2,7.98-8.74,7.69
				c-4.54-0.29-7.98-4.2-7.69-8.74c0-0.02,0.01-0.09,0.01-0.12c1.25-15.92,2.83-31.8,4.76-47.65c0.53-4.32,4.46-7.4,8.78-6.88
				C877.09,2012.29,880.15,2016.17,879.69,2020.44z"/>
			<path class="st3" d="M873.49,2128.07c-0.13,15.72,0.08,31.44,0.63,47.15c0.17,4.98-3.72,9.15-8.69,9.32
				c-4.97,0.17-9.15-3.72-9.32-8.69c0-0.03,0-0.1,0-0.13c-0.33-15.98-0.31-31.95,0.05-47.92c0.11-4.79,4.08-8.58,8.87-8.47
				C869.76,2119.44,873.53,2123.35,873.49,2128.07z"/>
			<path class="st3" d="M877.77,2235.71c1.36,15.65,3.07,31.27,5.12,46.84c0.68,5.14-2.93,9.85-8.07,10.53
				c-5.14,0.68-9.85-2.93-10.53-8.07l-0.01-0.04c-2.02-15.86-3.68-31.76-4.99-47.69c-0.42-5.1,3.38-9.57,8.48-9.99
				C872.88,2226.86,877.35,2230.61,877.77,2235.71z"/>
			<path class="st3" d="M892.57,2342.34c2.96,15.42,6.28,30.77,9.96,46.03c1.25,5.18-1.94,10.38-7.11,11.63
				c-5.18,1.25-10.38-1.94-11.63-7.11l-0.01-0.04c-3.67-15.57-6.98-31.23-9.92-46.95c-0.97-5.17,2.44-10.15,7.61-11.12
				C886.63,2333.81,891.6,2337.17,892.57,2342.34z"/>
			<path class="st3" d="M918.48,2446.76c4.58,15.01,9.51,29.92,14.78,44.7c1.84,5.15-0.85,10.81-6,12.65
				c-5.15,1.84-10.81-0.85-12.65-6l-0.02-0.04c-5.3-15.1-10.25-30.31-14.85-45.64c-1.55-5.18,1.38-10.63,6.56-12.18
				C911.48,2438.69,916.92,2441.59,918.48,2446.76z"/>
			<path class="st3" d="M955.27,2547.84c6.14,14.44,12.62,28.73,19.43,42.87c2.44,5.05,0.31,11.13-4.74,13.56
				c-5.05,2.43-11.13,0.31-13.56-4.74l-0.02-0.04c-6.88-14.45-13.42-29.07-19.61-43.82c-2.15-5.12,0.26-11,5.37-13.15
				C947.26,2540.36,953.13,2542.72,955.27,2547.84z"/>
			<path class="st3" d="M1002.6,2644.39c7.68,13.68,15.55,27.24,23.8,40.58c2.99,4.83,1.5,11.16-3.33,14.15
				c-4.83,2.99-11.16,1.51-14.14-3.32c-8.45-13.6-16.63-27.37-24.34-41.4c-2.74-4.99-0.92-11.25,4.06-14
				C993.6,2637.67,999.83,2639.46,1002.6,2644.39z"/>
			<path class="st3" d="M1059.76,2735.41c9.06,12.8,18.43,25.38,28.1,37.72c3.44,4.39,2.68,10.74-1.71,14.18
				c-4.39,3.44-10.72,2.7-14.16-1.69c-9.93-12.57-19.54-25.38-28.83-38.43c-3.26-4.58-2.19-10.93,2.38-14.2
				c4.58-3.26,10.93-2.2,14.2,2.38L1059.76,2735.41z"/>
			<path class="st3" d="M1126.68,2819.49c10.42,11.72,21.14,23.16,32.15,34.32c3.77,3.82,3.73,9.97-0.09,13.74
				c-3.8,3.75-9.9,3.72-13.67-0.02c-11.36-11.29-22.43-22.88-33.2-34.74c-3.7-4.07-3.39-10.37,0.68-14.06
				c4.07-3.7,10.37-3.39,14.06,0.68L1126.68,2819.49z"/>
			<path class="st3" d="M1202.73,2895.38c11.75,10.38,23.78,20.44,36.08,30.17c3.97,3.14,4.65,8.91,1.51,12.88
				c-3.12,3.95-8.83,4.63-12.8,1.57c-12.67-9.8-25.06-19.96-37.17-30.44c-3.93-3.4-4.36-9.34-0.96-13.27
				c3.4-3.93,9.34-4.36,13.27-0.96L1202.73,2895.38z"/>
			<path class="st3" d="M1287.4,2961.54c12.94,8.87,26.13,17.37,39.56,25.47c3.83,2.31,5.07,7.29,2.75,11.13
				c-2.28,3.79-7.18,5.03-10.99,2.83c-13.86-8-27.5-16.41-40.88-25.2c-3.96-2.6-5.06-7.91-2.46-11.87c2.6-3.96,7.91-5.06,11.87-2.46
				C1287.29,2961.47,1287.36,2961.52,1287.4,2961.54z"/>
			<path class="st3" d="M1379.93,3016.27c14.02,7.05,28.26,13.68,42.7,19.86c3.58,1.53,5.23,5.67,3.7,9.24
				c-1.51,3.53-5.57,5.19-9.12,3.76c-14.82-6.01-29.46-12.47-43.89-19.38c-3.74-1.79-5.32-6.27-3.53-10.01
				c1.79-3.74,6.27-5.32,10.01-3.53C1379.83,3016.22,1379.89,3016.26,1379.93,3016.27z"/>
			<path class="st3" d="M1479.31,3057.68c14.9,5.07,29.92,9.8,45.05,14.17c3.51,1.02,5.54,4.69,4.52,8.2
				c-1.02,3.51-4.66,5.55-8.17,4.53c-15.34-4.36-30.58-9.08-45.71-14.16c-3.52-1.18-5.42-5-4.24-8.52c1.18-3.52,5-5.42,8.52-4.24
				L1479.31,3057.68z"/>
			<path class="st3" d="M1583.15,3087.1c15.36,3.52,30.79,6.7,46.29,9.57c3.39,0.63,5.63,3.88,5,7.27
				c-0.62,3.37-3.85,5.61-7.22,5.01c-15.69-2.78-31.32-5.89-46.89-9.34c-3.46-0.77-5.64-4.19-4.87-7.65s4.19-5.64,7.65-4.87
				L1583.15,3087.1z"/>
			<path class="st3" d="M1689.5,3106.15c15.63,2.06,31.31,3.83,47.02,5.31c3.21,0.3,5.57,3.15,5.27,6.37
				c-0.3,3.2-3.13,5.55-6.33,5.28c-15.86-1.38-31.69-3.04-47.49-5.01c-3.3-0.41-5.64-3.42-5.23-6.72c0.41-3.3,3.42-5.64,6.72-5.23
				L1689.5,3106.15z"/>
			<path class="st3" d="M1797.22,3115.81c15.77,0.78,31.55,1.31,47.34,1.6c3.01,0.05,5.41,2.54,5.35,5.55
				c-0.05,3-2.52,5.39-5.51,5.35c-15.9-0.17-31.8-0.59-47.7-1.26c-3.1-0.13-5.51-2.75-5.38-5.86c0.13-3.1,2.76-5.51,5.86-5.38
				L1797.22,3115.81z"/>
			<path class="st3" d="M1905.48,3117.36l47.38-1.51l0.13,0c2.79-0.09,5.13,2.1,5.22,4.9c0.09,2.78-2.08,5.11-4.86,5.22l-47.64,1.87
				c-2.89,0.11-5.32-2.14-5.43-5.02c-0.11-2.89,2.14-5.32,5.02-5.43l0.04,0L1905.48,3117.36z"/>
			<path class="st3" d="M2013.73,3112.2l47.27-4.02l0.09-0.01c2.57-0.22,4.83,1.69,5.04,4.25c0.22,2.56-1.67,4.81-4.22,5.04
				l-47.44,4.38c-2.66,0.25-5.02-1.71-5.26-4.37c-0.25-2.66,1.71-5.02,4.37-5.26l0.04,0L2013.73,3112.2z"/>
			<path class="st3" d="M2121.67,3101.68l47.1-5.96l0.06-0.01c2.34-0.3,4.48,1.36,4.78,3.7c0.3,2.33-1.35,4.46-3.67,4.77
				l-47.19,6.32c-2.43,0.33-4.67-1.38-5-3.82c-0.33-2.43,1.38-4.67,3.82-5l0.03,0L2121.67,3101.68z"/>
			<path class="st3" d="M2229.21,3087.08l46.93-7.31l0.04-0.01c2.09-0.32,4.04,1.1,4.36,3.19c0.32,2.07-1.09,4.02-3.15,4.36
				l-46.94,7.77c-2.21,0.37-4.29-1.13-4.66-3.34s1.13-4.29,3.34-4.66l0.04-0.01L2229.21,3087.08z"/>
			<path class="st3" d="M2336.39,3069.73l46.81-8.19l0.02,0c1.79-0.31,3.5,0.89,3.81,2.68c0.31,1.78-0.87,3.48-2.65,3.81
				l-46.77,8.65c-1.91,0.35-3.75-0.91-4.11-2.83c-0.35-1.92,0.91-3.75,2.83-4.11l0.03-0.01L2336.39,3069.73z"/>
			<path class="st3" d="M2443.35,3050.69l23.72-4.34c1.56-0.29,3.07,0.75,3.35,2.31c0.28,1.56-0.74,3.05-2.29,3.35l-23.69,4.57
				c-1.63,0.31-3.2-0.75-3.51-2.38c-0.31-1.63,0.75-3.2,2.38-3.51L2443.35,3050.69z"/>
		</g>
		<g>
			<g>
				
					<linearGradient id="SVGID_16_" gradientUnits="userSpaceOnUse" x1="2028.5465" y1="2203.5928" x2="2385.3682" y2="1336.4098" gradientTransform="matrix(-0.9998 -0.0189 -0.0189 0.9998 3015.0847 19.4772)">
					<stop  offset="0" style="stop-color:#2B3582"/>
					<stop  offset="1" style="stop-color:#150E42"/>
				</linearGradient>
				<path class="st17" d="M568.02,1826.39c26.05-96.35,106.54-175.5,196.22-195.5c16.48-3.68,26.02-20.46,22.15-36.9
					c-0.03-0.11-0.05-0.23-0.08-0.34c-13-56.03,22.92-100.67,77.09-113.23c54.17-12.56,106.07,11.71,119.06,67.74
					c8.77,37.81-2.46,80.35-27.33,107.9c-10.25,11.35-11.07,28.29-1.14,39.93c54.65,64.03,76.89,161.76,53.25,249.17
					c-34.81,128.75-155.88,186.27-277.17,153.48C608.79,2065.83,533.21,1955.14,568.02,1826.39z"/>
				<path class="st3" d="M605.74,1949.26l2.36-1.65c-21.71-30.82-24.5-75.3-7.27-116.09c13.68-32.4,38.17-62.02,77.05-93.23
					c14.49-11.63,29.85-22.67,44.71-33.34c17.89-12.85,36.38-26.14,53.53-40.58c15.42-13,31.64-29.12,35.05-50.22
					c1.7-10.52,0.11-21.72-1.42-32.55c-2.4-16.95-4.67-32.97,5.27-45.23l-2.24-1.81c-10.73,13.23-8.26,30.63-5.88,47.44
					c1.51,10.62,3.06,21.6,1.43,31.68c-3.26,20.17-19.04,35.82-34.06,48.47c-17.06,14.37-35.51,27.63-53.35,40.44
					c-14.89,10.7-30.29,21.75-44.83,33.43c-39.27,31.52-64.03,61.5-77.9,94.35C580.56,1872.09,583.46,1917.64,605.74,1949.26z"/>
				<path class="st3" d="M663.41,1967.86l2.71-0.98c-14.77-40.86-10.45-91.07,11.87-137.77c22.12-46.28,58.29-84.01,87.32-111.72
					l-1.99-2.08c-29.21,27.87-65.61,65.85-87.94,112.56C652.74,1875.26,648.37,1926.28,663.41,1967.86z"/>
			</g>
			
				<linearGradient id="SVGID_17_" gradientUnits="userSpaceOnUse" x1="2258.9124" y1="5017.771" x2="2057.4133" y2="6692.3022" gradientTransform="matrix(-1 0 0 1 2955.5369 0)">
				<stop  offset="0" style="stop-color:#CB236D"/>
				<stop  offset="1" style="stop-color:#4C246D"/>
			</linearGradient>
			<path class="st18" d="M521.11,3140.79l-5.32,43.74c-5.54,20.79-32.3,73.16-66.64,69.75c-21.13-2.1-23.67-63.83-20.73-73.09
				c5.37-16.88,15.18-42.23,29.34-57.14h48.52C515.24,3124.04,522.19,3131.89,521.11,3140.79z"/>
			
				<linearGradient id="SVGID_18_" gradientUnits="userSpaceOnUse" x1="2039.0836" y1="3532.0703" x2="2173.6863" y2="1958.9003" gradientTransform="matrix(-1 0 0 1 2955.5369 0)">
				<stop  offset="0" style="stop-color:#FEBBBA"/>
				<stop  offset="1" style="stop-color:#FF928E"/>
			</linearGradient>
			<path class="st19" d="M901.11,2628.45l8.19,48.17c0,0-27.42,277.77-32.3,388.88c-0.76,17.42,3.74,34.63,12.88,49.48l47.68,77.43
				l-121.19-71.51l-2.41-14.79l19.84-27.28l-25.99-311.17c-1.53-18.28,2.25-36.61,10.86-52.8l25.07-47.09L901.11,2628.45z"/>
			
				<linearGradient id="SVGID_19_" gradientUnits="userSpaceOnUse" x1="1857.7579" y1="4969.4961" x2="1656.2595" y2="6644.0225" gradientTransform="matrix(-1 0 0 1 2955.5369 0)">
				<stop  offset="0" style="stop-color:#CB236D"/>
				<stop  offset="1" style="stop-color:#4C246D"/>
			</linearGradient>
			<path class="st20" d="M945.55,3203.63h-38.67c-7.24,0-14.07-3.32-18.48-9.06c-12.06-15.67-37.03-46.23-48.98-47.03
				c-16.08-1.07-14.02,56.09-14.02,56.09h-9.01l-11.42-71.03c-2.87-17.87,6.02-35.58,22.06-43.95l0,0c0,0,3.68,27.18,23.61,39.2
				c19.93,12.02,81.1,55.08,81.1,55.08s7.49-1.07,15.72,0.42C959.65,3185.56,957.95,3203.63,945.55,3203.63z"/>
			
				<linearGradient id="SVGID_20_" gradientUnits="userSpaceOnUse" x1="2309.845" y1="3555.4775" x2="2444.4829" y2="1981.8951" gradientTransform="matrix(-1 0 0 1 2955.5369 0)">
				<stop  offset="0" style="stop-color:#FEBBBA"/>
				<stop  offset="1" style="stop-color:#FF928E"/>
			</linearGradient>
			<path class="st21" d="M735.12,2651.33c0,0-160.65,304.74-186.19,374.32c-25.54,69.58-34.48,127.62-34.83,133.12
				c-0.54,8.59-11.22,16.83-40.66,16.83c-15.2,0-22.64-6.09-26.28-11.99c-3.11-5.03-3.27-11.32-0.65-16.63
				c9.29-18.81,38.78-78.91,49.71-106.17c13.04-32.55,41.09-180.04,56.47-231.33c15.38-51.28,32.77-106.91,99.77-158.15
				C652.46,2651.33,698.45,2606.29,735.12,2651.33z"/>
			<linearGradient id="SVGID_21_" gradientUnits="userSpaceOnUse" x1="1292.0826" y1="1614.6343" x2="506.9298" y2="2399.7871">
				<stop  offset="0" style="stop-color:#53D8FF"/>
				<stop  offset="1" style="stop-color:#3840F7"/>
			</linearGradient>
			<path class="st22" d="M836.61,2152c23.53-99.7-0.14-174.81-25-221.12c-19.83-36.93-5.89-82.62,31.3-101.96
				c58.12-30.23,117.09-44.36,117.09-44.36s115.17,84.2,101.5,150.1c-8.01,38.63-80.95,231.36-80.95,231.36
				S913.11,2197.94,836.61,2152z"/>
			<linearGradient id="SVGID_22_" gradientUnits="userSpaceOnUse" x1="1037.0946" y1="2156.7795" x2="634.4822" y2="2727.7578">
				<stop  offset="0" style="stop-color:#2B3582"/>
				<stop  offset="1" style="stop-color:#150E42"/>
			</linearGradient>
			<path class="st23" d="M744.73,2238.93c16.86-50.81,91.88-86.94,91.88-86.94c76.5,45.94,143.95,14.02,143.95,14.02
				s15.13,57.82,4.69,111.55c-10.44,53.73-75.94,399.05-75.94,399.05c-103.21,20.91-261.94-21.04-261.94-21.04
				C713.1,2538.86,727.87,2289.74,744.73,2238.93z"/>
			
				<linearGradient id="SVGID_23_" gradientUnits="userSpaceOnUse" x1="2024.322" y1="1981.3964" x2="2049.6067" y2="1796.4197" gradientTransform="matrix(-1 0 0 1 2955.5369 0)">
				<stop  offset="0" style="stop-color:#FEBBBA"/>
				<stop  offset="1" style="stop-color:#FF928E"/>
			</linearGradient>
			<path class="st24" d="M884.71,1668.52l-33.69,151.34c-3.23,13.33,8.93,11.15,22.4,8.61c22.07-4.16,50.52-12.73,60.03-29.91
				c0.97-1.75,1.45-3.72,1.72-5.7l14.47-104.94c1.15-8.33-3.35-16.41-11.04-19.81l-27.93-12.39
				C899.93,1650.94,887.48,1657.08,884.71,1668.52z"/>
			
				<linearGradient id="SVGID_24_" gradientUnits="userSpaceOnUse" x1="1890.6689" y1="1548.8853" x2="1866.8966" y2="2134.0403" gradientTransform="matrix(-1 0 0 1 2955.5369 0)">
				<stop  offset="0" style="stop-color:#FEBBBA"/>
				<stop  offset="1" style="stop-color:#FF928E"/>
			</linearGradient>
			<path class="st25" d="M1305.83,1568.56c0,0-88.68,308.05-446.26,279.1c-22.88-1.85-42.97,15.1-44.75,37.98l-0.96,12.36
				c-2.58,33.15,24.47,61.09,57.68,59.41c118.93-6.02,374.35-52.72,461.9-335.31L1305.83,1568.56z"/>
			
				<linearGradient id="SVGID_25_" gradientUnits="userSpaceOnUse" x1="1625.0181" y1="1543.8484" x2="1602.8721" y2="2088.9724" gradientTransform="matrix(-1 0 0 1 2955.5369 0)">
				<stop  offset="0" style="stop-color:#FEBBBA"/>
				<stop  offset="1" style="stop-color:#FF928E"/>
			</linearGradient>
			<path class="st26" d="M1333.43,1622.1c0,0,17.04-50.15,21.32-81.49c4.28-31.34-11.48-101.69-25.02-121.47
				c-13.54-19.78-15.81,28.71-21.9,51.5c-6.1,22.79,4.23,55.31,4.23,55.31l-6.23,42.62L1333.43,1622.1z"/>
			<g>
				
					<linearGradient id="SVGID_26_" gradientUnits="userSpaceOnUse" x1="-6385.7363" y1="2680.4001" x2="-6216.4126" y2="2875.0774" gradientTransform="matrix(-0.9653 0.2612 0.2612 0.9653 -5901.4424 649.0368)">
					<stop  offset="0" style="stop-color:#FEBBBA"/>
					<stop  offset="1" style="stop-color:#FF928E"/>
				</linearGradient>
				<path class="st27" d="M953.8,1543.66c0,0,85.19,124.11,32.21,158.69c-52.98,34.58-113.63-53.62-113.63-53.62
					s-19.04-67.41,2.62-89.74C896.67,1536.65,953.8,1543.66,953.8,1543.66z"/>
				
					<linearGradient id="SVGID_27_" gradientUnits="userSpaceOnUse" x1="1850.0417" y1="2140.1914" x2="2210.0432" y2="1265.2808" gradientTransform="matrix(-0.9998 -0.0189 -0.0189 0.9998 3015.0847 19.4772)">
					<stop  offset="0" style="stop-color:#2B3582"/>
					<stop  offset="1" style="stop-color:#150E42"/>
				</linearGradient>
				<path class="st28" d="M918.06,1513.55c0,0,37.06,9.52,41.96,26.47c4.9,16.94-53.41,31.47-69.68,31.93l-14.38,67.73
					c0,0-37.51-64.68-21.48-101.32C870.52,1501.72,918.06,1513.55,918.06,1513.55z"/>
				
					<linearGradient id="SVGID_28_" gradientUnits="userSpaceOnUse" x1="-6343.4312" y1="2643.6035" x2="-6174.1094" y2="2838.2781" gradientTransform="matrix(-0.9653 0.2612 0.2612 0.9653 -5901.4424 649.0368)">
					<stop  offset="0" style="stop-color:#FEBBBA"/>
					<stop  offset="1" style="stop-color:#FF928E"/>
				</linearGradient>
				<path class="st29" d="M889.52,1640.04c0,0-33.31-40.09-47.35-14.63c-14.03,25.46,29.81,45.6,45.35,33.26L889.52,1640.04z"/>
			</g>
		</g>
	</g>
</g>
</svg>
